<svg width="570" height="527" viewBox="0 0 570 527" fill="none" xmlns="http://www.w3.org/2000/svg">
<g id="undraw_camping_noc8 2" clip-path="url(#clip0)">
<g id="camping">
<g id="plants">
<path id="Vector" d="M502.253 305.917L514.717 290.684C513.582 280.587 511.981 270.575 509.922 260.697L502.818 265.089L509.2 257.291C506.555 245.108 504.172 237.244 504.172 237.244C504.172 237.244 479.051 268.49 466.068 305.13L474.112 330.96L463.106 314.356C461.851 318.691 460.82 323.119 460.02 327.612C452.076 372.949 457.76 412.871 472.714 416.78C487.669 420.689 506.232 387.104 514.176 341.767C516.639 327.712 516.612 312.327 515.404 297.786L502.253 305.917Z" fill="#02A05E"/>
<path id="Vector_2" d="M80.2702 155.67L78.1804 113.375C64.5264 102.236 50.369 92.0469 35.7755 82.8555L31.7966 101.361L30.7266 79.7062C12.589 68.5596 0 62.5808 0 62.5808C0 62.5808 4.87209 148.535 32.0893 219.708L73.724 238.959L39.3426 237.075C42.9298 244.992 46.9211 252.624 51.2929 259.929C95.5713 333.392 151.11 375.283 175.343 353.495C199.575 331.707 183.325 254.491 139.046 181.028C125.32 158.254 106.74 138.22 87.6361 121.411L80.2702 155.67Z" fill="#02A05E"/>
<path id="Vector_3" d="M461.12 144.735L481.78 112.883C477.858 94.2569 473.08 75.9154 467.467 57.9462L454.932 68.0596L465.509 51.7514C458.388 29.6162 452.525 15.5085 452.525 15.5085C452.525 15.5085 410.987 80.7279 393.156 152.845L412.82 199.129L389.242 170.921C387.659 179.379 386.513 187.951 385.81 196.586C378.97 283.669 396.71 356.993 425.436 360.359C454.161 363.725 482.993 295.859 489.833 208.775C491.954 181.779 489.172 152.948 484.327 126.013L461.12 144.735Z" fill="#00EA88"/>
<path id="Vector_4" d="M166.757 130.366L182.868 92.8396C175.894 74.6841 168.087 57.0236 159.484 39.9421L148.246 53.272L156.495 34.0586C145.686 13.0659 137.439 0 137.439 0C137.439 0 105.233 76.6566 98.4104 154.767L125.904 197.532L97.2693 174.213C96.9898 183.255 97.1763 192.308 97.8275 201.321C104.641 292.163 134.456 363.087 164.421 359.734C194.386 356.382 213.154 280.022 206.34 189.18C204.228 161.018 196.802 132.138 187.562 105.689L166.757 130.366Z" fill="#00EA88"/>
<path id="Vector_5" d="M375.931 149.746L380.136 109.437C368.896 95.9673 357.043 83.2829 344.633 71.444L338.182 88.0155L340.335 67.3769C324.872 52.9238 313.882 44.5486 313.882 44.5486C313.882 44.5486 305.925 126.604 321.182 199.596L357.604 226.803L325.481 217.541C327.706 225.781 330.353 233.843 333.406 241.678C364.405 320.544 410.623 372.112 436.638 356.858C462.653 341.605 458.612 265.306 427.613 186.44C418.003 161.991 403.42 139.067 387.873 119.068L375.931 149.746Z" fill="#02A05E"/>
<path id="Vector_6" d="M539.294 337.555L556.411 332.385C559.712 323.024 562.579 313.443 564.997 303.687L557.057 302.962L565.821 300.315C568.712 288.216 570 279.98 570 279.98C570 279.98 535.272 290.868 508.651 314.038L504.606 341.228L502.211 320.065C499.302 322.984 496.546 326.123 493.959 329.464C467.971 363.26 455.941 401.023 467.089 413.811C478.237 426.598 508.341 409.568 534.329 375.772C542.385 365.295 548.873 352.108 553.993 338.897L539.294 337.555Z" fill="#00EA88"/>
</g>
<g id="tent-and-wood">
<path id="Vector_7" d="M414.167 463.952C411.703 462.715 407.219 462.779 405.197 463.952C404.89 464.108 404.593 464.288 404.308 464.493L392.641 472.452C391.848 473.083 392.035 473.917 393.086 474.436C394.466 475.021 395.963 475.061 397.363 474.552L412.814 468.947C413.262 468.808 413.703 468.641 414.136 468.445C416.57 467.453 416.599 465.211 414.167 463.952Z" fill="#3F3D56"/>
<path id="Vector_8" d="M429.458 474.351C429.458 473.112 426.57 472.12 424.425 472.38L409.663 474.75C408.781 474.901 408.125 475.252 408.125 475.807C408.125 476.361 409.087 476.748 410.099 476.748H425.747C427.769 476.748 429.458 475.927 429.458 474.351Z" fill="#3F3D56"/>
<path id="Vector_9" d="M349.844 474.75L334.86 472.38C332.708 472.12 329.904 473.17 329.904 474.409C329.904 475.647 331.566 476.752 333.537 476.752H349.186C350.275 476.752 351.286 476.388 351.286 475.811C351.286 475.234 350.819 474.901 349.844 474.75Z" fill="#3F3D56"/>
<path id="Vector_10" d="M256.89 510.085C268.624 510.085 278.136 506.766 278.136 502.671C278.136 498.577 268.624 495.257 256.89 495.257C245.156 495.257 235.644 498.577 235.644 502.671C235.644 506.766 245.156 510.085 256.89 510.085Z" fill="#E6E6E6"/>
<path id="Vector_11" d="M445.372 456.704C454.256 456.704 461.458 454.191 461.458 451.091C461.458 447.991 454.256 445.477 445.372 445.477C436.488 445.477 429.286 447.991 429.286 451.091C429.286 454.191 436.488 456.704 445.372 456.704Z" fill="#E6E6E6"/>
<path id="Vector_12" d="M96.9383 451.409C102.805 451.409 107.561 449.607 107.561 447.384C107.561 445.161 102.805 443.359 96.9383 443.359C91.0714 443.359 86.3153 445.161 86.3153 447.384C86.3153 449.607 91.0714 451.409 96.9383 451.409Z" fill="#E6E6E6"/>
<path id="Vector_13" d="M55.0534 496.634C60.9203 496.634 65.6764 494.832 65.6764 492.609C65.6764 490.387 60.9203 488.585 55.0534 488.585C49.1865 488.585 44.4304 490.387 44.4304 492.609C44.4304 494.832 49.1865 496.634 55.0534 496.634Z" fill="#E6E6E6"/>
<path id="Vector_14" d="M55.0534 425.459C60.9203 425.459 65.6764 423.658 65.6764 421.435C65.6764 419.212 60.9203 417.41 55.0534 417.41C49.1865 417.41 44.4304 419.212 44.4304 421.435C44.4304 423.658 49.1865 425.459 55.0534 425.459Z" fill="#E6E6E6"/>
<path id="Vector_15" d="M509.774 434.917L406.846 430.469L352.566 436.793L259.83 447.595L224.932 451.658L144.113 484.576C143.788 484.708 143.44 484.725 143.108 484.625C142.776 484.525 142.474 484.312 142.237 484.011C142 483.71 141.837 483.333 141.769 482.924C141.7 482.515 141.728 482.09 141.848 481.699L141.855 481.692L155.871 436.415L154.396 435.087L115.825 400.471L115.619 400.286L65.6058 390.974C64.9017 390.842 64.2367 390.493 63.6736 389.96C63.1104 389.428 62.6677 388.728 62.3871 387.929C62.1065 387.129 61.9973 386.255 62.0697 385.39C62.1422 384.524 62.394 383.695 62.8014 382.982L138.971 249.485L178.999 179.348L183.339 171.734L349.846 168.924L512.415 428.674C512.781 429.259 513.003 429.959 513.056 430.693C513.109 431.426 512.99 432.163 512.713 432.817C512.437 433.471 512.013 434.016 511.493 434.388C510.973 434.76 510.376 434.943 509.774 434.917Z" fill="#FF636C"/>
<path id="Vector_16" opacity="0.2" d="M222.512 182.079L154.563 434.599L115.997 399.983L139.142 248.998L179.053 178.692L179.166 178.856L222.512 182.079Z" fill="black"/>
<path id="Vector_17" d="M161.859 278.815C154.149 301.453 151.42 320.361 142.274 316.947C129.754 312.272 142.9 295.738 150.61 273.1C158.32 250.462 163.768 233.097 170.195 234.969C182.177 238.457 169.569 256.178 161.859 278.815Z" fill="#3F3D56"/>
<path id="Vector_18" d="M179.327 233.502C179.325 232.004 179.082 230.521 178.611 229.138C178.139 227.755 177.45 226.498 176.581 225.441C175.712 224.383 174.681 223.545 173.547 222.974C172.413 222.402 171.198 222.11 169.972 222.112C169.761 222.113 169.553 222.125 169.345 222.142L160.531 220.814C159.519 220.373 158.453 220.15 157.379 220.153C157.083 220.153 156.79 220.173 156.5 220.206L156.161 220.155L156.152 220.256C154.083 220.596 152.167 221.771 150.709 223.596C149.252 225.42 148.336 227.788 148.109 230.322C147.882 232.856 148.356 235.41 149.456 237.577C150.556 239.743 152.218 241.397 154.178 242.275L154.16 242.48L155.027 242.599C155.805 242.847 156.605 242.972 157.409 242.97C157.498 242.97 157.587 242.964 157.675 242.961L166.686 244.194C167.745 244.683 168.869 244.932 170.002 244.929C170.424 244.928 170.846 244.891 171.264 244.82L172.032 244.925L172.037 244.65C174.109 244.081 175.959 242.666 177.285 240.64C178.61 238.613 179.33 236.096 179.327 233.502V233.502Z" fill="#FFBE21"/>
<path id="Vector_19" opacity="0.2" d="M179.558 233.395C179.556 231.897 179.313 230.414 178.841 229.031C178.37 227.647 177.68 226.391 176.812 225.333C175.943 224.276 174.912 223.437 173.778 222.866C172.644 222.295 171.429 222.002 170.202 222.005C169.992 222.005 169.783 222.017 169.576 222.034L160.761 220.706C159.75 220.266 158.684 220.042 157.61 220.045C157.313 220.046 157.021 220.065 156.731 220.099L156.392 220.048L156.382 220.149C154.314 220.488 152.398 221.664 150.94 223.488C149.482 225.313 148.567 227.681 148.34 230.215C148.113 232.749 148.587 235.303 149.687 237.469C150.787 239.636 152.449 241.29 154.409 242.168L154.39 242.373L155.258 242.492C156.035 242.74 156.836 242.864 157.64 242.863C157.729 242.862 157.817 242.857 157.906 242.854L166.917 244.087C167.976 244.576 169.1 244.825 170.232 244.822C170.655 244.82 171.076 244.784 171.495 244.713L172.263 244.818L172.268 244.543C174.339 243.973 176.19 242.559 177.515 240.532C178.841 238.506 179.561 235.989 179.558 233.395Z" fill="white"/>
<path id="Vector_20" d="M54.58 396.35L53.5011 395.658C81.1358 331.328 159.297 193.877 160.083 192.496L161.083 193.346C160.298 194.726 82.1795 332.101 54.58 396.35Z" fill="#3F3D56"/>
<path id="Vector_21" d="M139.229 485.758L138.054 485.367C138.623 482.811 195.227 229.22 214.88 186.441L215.942 187.169C196.362 229.789 139.798 483.203 139.229 485.758Z" fill="#3F3D56"/>
<path id="Vector_22" d="M517.374 436.593C487.197 375.878 373.237 187.84 372.089 185.947L373.068 185.062C374.216 186.954 488.21 375.048 518.415 435.821L517.374 436.593Z" fill="#3F3D56"/>
<path id="Vector_23" d="M137.035 492.508C139.391 492.503 141.296 489.501 141.291 485.803C141.286 482.105 139.373 479.111 137.018 479.115C134.663 479.12 132.757 482.122 132.762 485.82C132.767 489.518 134.68 492.513 137.035 492.508Z" fill="#3F3D56"/>
<path id="Vector_24" d="M54.8571 392.227C57.2122 392.222 59.1174 389.22 59.1126 385.522C59.1077 381.824 57.1946 378.83 54.8395 378.834C52.4844 378.839 50.5791 381.841 50.584 385.539C50.5889 389.237 52.502 392.231 54.8571 392.227Z" fill="#3F3D56"/>
<path id="Vector_25" d="M518.504 439.935C520.859 439.93 522.764 436.928 522.759 433.23C522.755 429.532 520.841 426.538 518.486 426.542C516.131 426.547 514.226 429.549 514.231 433.247C514.236 436.945 516.149 439.939 518.504 439.935Z" fill="#3F3D56"/>
<path id="Vector_26" d="M155.347 192.882L385.181 195.89C385.021 172.964 377.45 151.043 364.117 134.905C350.784 118.766 332.769 109.716 313.997 109.728L226.284 109.9C189.596 109.972 158.531 145.014 155.561 189.677L155.347 192.882Z" fill="#3F3D56"/>
<path id="Vector_27" opacity="0.2" d="M357.288 285.673H273.287C272.264 285.672 271.252 285.919 270.308 286.4C269.364 286.881 268.507 287.586 267.788 288.475C267.07 289.363 266.502 290.417 266.12 291.575C265.737 292.734 265.547 293.974 265.56 295.223L265.632 302.726L266.379 383.049L266.391 384.599L266.416 387.157L266.44 389.655L266.579 404.713C266.602 407.163 267.404 409.507 268.815 411.249C270.227 412.99 272.137 413.994 274.143 414.047C274.349 414.047 274.562 414.04 274.774 414.025L294.721 412.542L323.579 410.392L333.765 409.636L336.035 409.465L351.909 408.287H351.915L357.755 407.849C359.719 407.7 361.563 406.643 362.912 404.892C364.261 403.142 365.013 400.83 365.015 398.426V295.111C365.013 292.609 364.198 290.21 362.749 288.441C361.301 286.671 359.336 285.676 357.288 285.673V285.673Z" fill="black"/>
<path id="Vector_28" d="M374.586 272.554C374.282 272.584 373.987 272.695 373.723 272.88C373.458 273.065 373.231 273.32 373.056 273.625L363.801 273.643V270.645C363.799 268.143 362.984 265.744 361.535 263.974C360.086 262.205 358.122 261.21 356.073 261.207H272.073C271.05 261.206 270.037 261.453 269.094 261.934C268.15 262.415 267.293 263.12 266.574 264.008C265.855 264.897 265.288 265.951 264.906 267.109C264.523 268.268 264.333 269.507 264.346 270.756L264.375 273.838L258.406 273.85C258.079 273.425 257.63 273.17 257.153 273.141C255.061 273.145 253.372 278.725 253.381 285.605C253.39 292.485 255.093 298.058 257.185 298.054C257.55 298.005 257.9 297.85 258.205 297.602C258.51 297.354 258.762 297.019 258.939 296.627L373.086 296.403C373.262 296.707 373.49 296.961 373.755 297.145C374.02 297.329 374.315 297.439 374.618 297.467C376.711 297.463 378.399 291.883 378.39 285.003C378.381 278.124 376.678 272.55 374.586 272.554Z" fill="#F9A825"/>
<path id="Vector_29" opacity="0.2" d="M375.707 272.127C375.403 272.157 375.108 272.268 374.844 272.454C374.579 272.639 374.352 272.893 374.177 273.198L364.922 273.216V270.218C364.92 267.716 364.105 265.317 362.656 263.548C361.207 261.778 359.243 260.783 357.194 260.78H273.194C272.171 260.779 271.158 261.026 270.215 261.507C269.271 261.988 268.414 262.693 267.695 263.581C266.976 264.47 266.409 265.524 266.027 266.682C265.644 267.841 265.454 269.08 265.466 270.33L265.496 273.412L259.527 273.423C259.2 272.998 258.751 272.744 258.274 272.714C256.181 272.718 254.493 278.299 254.502 285.178C254.511 292.058 256.214 297.631 258.306 297.627C258.671 297.579 259.021 297.424 259.326 297.175C259.631 296.927 259.883 296.592 260.06 296.2L374.207 295.976C374.383 296.281 374.611 296.534 374.876 296.718C375.141 296.902 375.436 297.012 375.739 297.041C377.832 297.037 379.52 291.456 379.511 284.577C379.502 277.697 377.799 272.123 375.707 272.127Z" fill="white"/>
<path id="Vector_30" d="M384.909 492.54C384.801 491.302 384.318 490.159 383.556 489.334C382.793 488.508 381.806 488.06 380.787 488.078C379.859 488.07 378.956 488.443 378.222 489.138C377.489 489.832 376.968 490.808 376.743 491.907V491.907L372.698 515.895C372.565 516.596 372.495 517.313 372.492 518.033C372.492 523.443 376.198 527.202 380.787 527.202C385.376 527.202 389.085 523.443 389.085 518.033C389.082 517.167 388.986 516.304 388.798 515.468L384.909 492.54Z" fill="#3F3D56"/>
<path id="Vector_31" d="M415.502 503.269C415.091 502.828 414.648 502.433 414.18 502.088L398.729 488.9C397.225 487.747 395.618 487.779 394.451 489.172C393.942 489.763 393.619 490.555 393.537 491.407C393.456 492.26 393.622 493.121 394.007 493.84L405.673 512.567C405.94 513.021 406.237 513.447 406.562 513.84C408.584 516.6 413.069 516.752 415.533 513.84C417.964 510.879 417.935 505.603 415.502 503.269Z" fill="#3F3D56"/>
<path id="Vector_32" d="M427.113 483.732H411.464C410.963 483.709 410.474 483.929 410.104 484.344C409.735 484.758 409.514 485.335 409.491 485.947C409.483 486.512 409.63 487.064 409.909 487.514C410.188 487.965 410.582 488.288 411.029 488.433L425.791 494.011C427.935 494.621 430.824 492.287 430.824 489.372C430.824 485.665 429.135 483.732 427.113 483.732Z" fill="#3F3D56"/>
<path id="Vector_33" d="M352.652 485.936C352.635 485.621 352.568 485.314 352.453 485.031C352.338 484.748 352.178 484.497 351.983 484.29C351.787 484.084 351.56 483.928 351.314 483.83C351.068 483.732 350.809 483.695 350.552 483.722H334.903C332.932 483.722 331.27 486.322 331.27 489.237C331.27 492.152 334.074 494.621 336.225 494.011L351.21 488.433C351.659 488.306 352.054 487.981 352.32 487.52C352.586 487.06 352.704 486.496 352.652 485.936Z" fill="#3F3D56"/>
<path id="Vector_34" d="M363.392 488.922L347.936 502.053C347.456 502.382 347.009 502.779 346.603 503.233C345.467 504.524 344.797 506.313 344.741 508.207C344.684 510.101 345.247 511.945 346.303 513.333C346.4 513.459 346.5 513.581 346.603 513.699C347.815 515.097 349.42 515.876 351.087 515.876C352.755 515.876 354.359 515.097 355.572 513.699C355.902 513.313 356.2 512.887 356.461 512.429L368.136 493.807C368.527 493.098 368.697 492.241 368.616 491.392C368.534 490.542 368.206 489.757 367.692 489.177C367.115 488.52 366.367 488.135 365.58 488.088C364.793 488.041 364.017 488.337 363.392 488.922V488.922Z" fill="#3F3D56"/>
<path id="Vector_35" d="M387.432 463.26C387.611 462.938 387.711 462.56 387.719 462.17C387.719 459.871 384.01 458.274 379.421 458.274C374.832 458.274 371.126 459.871 371.126 462.17C371.132 462.489 371.203 462.802 371.332 463.079L375.377 473.274C375.84 474.235 377.511 474.908 379.421 474.901C381.574 474.901 383.363 474.069 383.543 473.005L387.432 463.26Z" fill="#3F3D56"/>
<path id="Vector_36" d="M366.326 474.434C367.419 473.907 367.548 473.11 366.77 472.466L355.095 464.552C354.811 464.343 354.514 464.163 354.206 464.012C351.302 462.778 348.141 462.778 345.237 464.012C345.134 464.062 345.034 464.114 344.938 464.168C342.737 465.396 342.871 467.318 345.237 468.46C345.672 468.664 346.117 468.832 346.571 468.962L362.026 474.542C363.434 475.053 364.937 475.015 366.326 474.434V474.434Z" fill="#3F3D56"/>
</g>
<g id="fire">
<path id="Vector_37" d="M411.248 461.61C411.248 491.09 397.796 491.635 381.202 491.635C364.608 491.635 337.363 485.803 351.155 461.61C365.702 436.093 390.657 387.454 381.202 384.878C381.202 384.878 411.248 432.13 411.248 461.61Z" fill="#F9A825"/>
<path id="Vector_38" opacity="0.5" d="M391.784 479.75C391.784 491.42 386.459 491.635 379.89 491.635C373.322 491.635 362.538 489.327 367.997 479.75C373.755 469.65 383.633 450.397 379.89 449.377C379.89 449.377 391.784 468.081 391.784 479.75Z" fill="#FF6584"/>
</g>
<g id="person">
<path id="Vector_39" d="M365.182 430.057C364.626 430.692 363.957 431.162 363.228 431.429C362.498 431.696 361.728 431.754 360.977 431.597C360.227 431.441 359.516 431.074 358.901 430.526C358.285 429.978 357.782 429.264 357.43 428.439L352.864 417.73L354.68 412.922L364.471 420.574C365.104 421.069 365.637 421.735 366.028 422.52C366.418 423.305 366.657 424.188 366.726 425.103C366.794 426.018 366.691 426.94 366.424 427.798C366.156 428.657 365.731 429.429 365.182 430.057Z" fill="#FFB8B8"/>
<path id="Vector_40" d="M365.015 393.155V398.426C365.013 400.83 364.261 403.142 362.912 404.892C361.563 406.643 359.719 407.7 357.755 407.849L274.774 414.025C273.729 414.103 272.682 413.921 271.697 413.49C270.711 413.059 269.808 412.387 269.041 411.516C268.275 410.645 267.661 409.593 267.238 408.423C266.815 407.254 266.591 405.992 266.579 404.713L266.379 383.049L316.574 382.056L365.015 393.155Z" fill="#3F3D56"/>
<path id="Vector_41" d="M351.483 419.265L314.047 395.517C313.875 395.408 313.723 395.255 313.603 395.068C313.482 394.881 313.396 394.666 313.349 394.435L305.228 354.46C304.757 352.141 305.011 349.69 305.941 347.587C306.872 345.485 308.411 343.882 310.258 343.093L312.214 342.256C312.65 342.07 313.113 341.995 313.574 342.036C314.035 342.077 314.484 342.233 314.893 342.494C315.303 342.755 315.664 343.117 315.955 343.555C316.245 343.994 316.459 344.501 316.583 345.045L324.587 380.239C324.662 380.568 324.817 380.862 325.033 381.08L355.535 411.947C355.798 412.214 355.97 412.59 356.018 413.004C356.065 413.417 355.984 413.837 355.791 414.181L353.246 418.725C353.057 419.062 352.774 419.304 352.449 419.403C352.124 419.503 351.781 419.453 351.483 419.265V419.265Z" fill="#E6E6E6"/>
<path id="Vector_42" d="M326.822 357.075C308.665 345.4 289.659 339.537 269.287 343.021C275.428 330.31 279.989 318.558 279.684 309.76C279.553 306.933 279.991 304.11 280.961 301.538C281.931 298.966 283.402 296.723 285.246 295.007C288.214 292.32 291.81 290.871 295.504 290.872V290.872C298.803 289.076 302.54 288.895 305.945 290.365C307.391 291.03 308.705 292.06 309.802 293.387C310.899 294.714 311.755 296.309 312.313 298.067C313.01 300.128 314.509 301.933 316.684 303.524C318.699 304.947 320.34 307.042 321.416 309.562C322.849 313.045 322.948 316.55 321.07 320.09C328.101 329.111 328.12 342.667 326.822 357.075Z" fill="#2F2E41"/>
<path id="Vector_43" d="M301.083 327.857C308.107 327.857 313.801 320.903 313.801 312.324C313.801 303.745 308.107 296.79 301.083 296.79C294.059 296.79 288.365 303.745 288.365 312.324C288.365 320.903 294.059 327.857 301.083 327.857Z" fill="#FFB8B8"/>
<path id="Vector_44" d="M307.139 345.98L292.301 347.829C293.097 337.233 293.411 327.455 292.301 320.09H307.139C304.321 331.817 304.568 340.175 307.139 345.98Z" fill="#FFB8B8"/>
<path id="Vector_45" d="M315.087 345.579C315.075 347.202 315.047 348.809 315.002 350.398C314.692 361.771 313.521 372.01 310.328 379.55C309.68 381.111 308.905 382.589 308.015 383.961C308.009 383.975 308.001 383.988 307.991 383.998C307.93 384.102 307.863 384.201 307.791 384.295C307.138 385.285 306.412 386.201 305.623 387.03L299.547 394.815L299.268 395.171L297.495 396.617L288.366 404.046L266.44 389.655L266.416 387.157L266.391 384.599C271.266 376.162 274.307 365.189 276.237 352.696C276.765 349.278 277.215 345.742 277.597 342.109C277.858 339.595 278.089 337.03 278.289 334.428C278.32 333.629 278.542 332.858 278.926 332.211C278.926 332.21 278.926 332.209 278.927 332.208C278.927 332.207 278.928 332.207 278.928 332.206C278.929 332.205 278.929 332.205 278.93 332.204C278.931 332.204 278.932 332.204 278.932 332.204C279.867 330.751 281.725 330.78 283.971 330.632C287.121 330.424 290.223 328.43 293.009 330.313C293.079 330.352 293.146 330.396 293.21 330.447L301.386 341.538L305.144 336.593L305.32 336.363L313.059 340.411C313.851 340.829 314.492 341.582 314.865 342.532C315.237 343.481 315.316 344.563 315.087 345.579V345.579Z" fill="#E6E6E6"/>
<path id="Vector_46" d="M297.829 400.094C297.83 401.985 297.537 403.859 296.967 405.617L294.721 412.542L274.774 414.025C274.562 414.04 274.349 414.047 274.143 414.047C272.137 413.994 270.227 412.99 268.815 411.248C267.404 409.507 266.602 407.163 266.579 404.713L266.44 389.655L266.416 387.156L273.676 390.915L280.754 386.274C281.139 386.073 281.535 385.899 281.937 385.755C282.461 385.552 282.997 385.396 283.54 385.288H283.546C283.807 385.236 284.068 385.192 284.329 385.162C287.329 384.795 290.335 385.79 292.773 387.957C294.197 389.217 295.38 390.842 296.239 392.717C296.304 392.846 296.363 392.979 296.415 393.117C296.897 394.222 297.261 395.398 297.495 396.617C297.716 397.756 297.828 398.923 297.829 400.094V400.094Z" fill="#2F2E41"/>
<path id="Vector_47" opacity="0.2" d="M292.15 355.78L294.803 370.649L310.924 387.587L296.692 369.835L292.15 355.78Z" fill="black"/>
<path id="Vector_48" d="M316.375 313.248C307.001 307.981 296.404 306.479 287.002 312.139L288.213 298.824L308.804 294.756L316.375 313.248Z" fill="#2F2E41"/>
</g>
<g id="food-and-arm">
<path id="Vector_49" opacity="0.2" d="M277.312 362.807L282.157 386.847L296.389 393.135L283.065 384.998L277.312 362.807Z" fill="black"/>
<path id="Vector_50" d="M391.926 430.548L323 416.086L323.845 411L391.926 430.548Z" fill="#3F3D56"/>
<path id="Vector_51" d="M384.295 432.88C384.625 432.959 384.969 432.875 385.249 432.646C385.529 432.418 385.725 432.063 385.792 431.66L386.483 427.438C386.549 427.034 386.481 426.614 386.294 426.271C386.106 425.928 385.815 425.69 385.484 425.609L375.48 423.166C375.149 423.086 374.805 423.17 374.525 423.398C374.244 423.627 374.049 423.982 373.982 424.386L373.292 428.608C373.259 428.808 373.259 429.014 373.291 429.214C373.323 429.414 373.388 429.605 373.481 429.775C373.573 429.945 373.692 430.09 373.831 430.204C373.97 430.318 374.126 430.397 374.29 430.437L384.295 432.88Z" fill="#E6E6E6"/>
<path id="Vector_52" d="M320.597 408.17L283.16 384.422C282.988 384.313 282.836 384.159 282.716 383.973C282.595 383.786 282.509 383.57 282.462 383.34L274.341 343.365C273.87 341.046 274.124 338.595 275.055 336.492C275.985 334.39 277.524 332.787 279.371 331.997L281.327 331.161C281.763 330.975 282.226 330.9 282.687 330.941C283.148 330.981 283.597 331.137 284.007 331.399C284.416 331.66 284.777 332.021 285.068 332.46C285.358 332.899 285.572 333.406 285.696 333.95L293.7 369.144C293.775 369.473 293.931 369.767 294.146 369.985L324.648 400.852C324.911 401.118 325.083 401.495 325.131 401.908C325.178 402.322 325.098 402.742 324.905 403.086L322.359 407.63C322.17 407.967 321.887 408.208 321.562 408.308C321.237 408.407 320.894 408.358 320.597 408.17V408.17Z" fill="#E6E6E6"/>
<path id="Vector_53" d="M334.295 418.962C333.739 419.597 333.07 420.067 332.341 420.334C331.611 420.601 330.841 420.659 330.091 420.502C329.34 420.345 328.629 419.979 328.014 419.431C327.399 418.883 326.895 418.168 326.544 417.343L321.977 406.634L323.794 401.826L333.584 409.479C334.217 409.974 334.75 410.64 335.141 411.424C335.532 412.209 335.77 413.093 335.839 414.008C335.908 414.922 335.804 415.844 335.537 416.703C335.269 417.561 334.845 418.334 334.295 418.962V418.962Z" fill="#FFB8B8"/>
</g>
</g>
</g>
<defs>
<clipPath id="clip0">
<rect width="570" height="527" fill="white"/>
</clipPath>
</defs>
</svg>
