<svg width="1750" height="1443" viewBox="0 0 1750 1443" fill="none" xmlns="http://www.w3.org/2000/svg">
<g id="comunication-widget">
<g id="man-box">
<path id="man-box_2" d="M696.508 492.816H302.08C284.363 492.816 270 508.606 270 528.085V961.73C270 981.209 284.363 997 302.08 997H696.508C714.225 997 728.588 981.209 728.588 961.73V528.085C728.588 508.606 714.225 492.816 696.508 492.816Z" fill="#F5EBDD"/>
</g>
<path id="Vector" d="M643.18 477.417C649.293 477.417 654.248 471.968 654.248 465.247C654.248 458.527 649.293 453.078 643.18 453.078C637.066 453.078 632.111 458.527 632.111 465.247C632.111 471.968 637.066 477.417 643.18 477.417Z" fill="#A15842"/>
<path id="Vector_2" d="M643.179 422.943V461.195" stroke="#A15842" stroke-width="4" stroke-miterlimit="10"/>
<path id="Vector_3" d="M690.878 435.702H674.034V595.646H690.878V435.702Z" fill="#A15842"/>
<path id="Vector_4" d="M732.594 303.824C729.225 311.147 715.094 336.712 682.456 336.712C649.819 336.712 635.699 311.147 632.319 303.824L600.764 435.702H764.159L732.594 303.824Z" fill="#FFBE21"/>
<path id="Vector_5" d="M718.977 306.385L740.195 435.726" stroke="#F5EBDD" stroke-width="4" stroke-miterlimit="10" stroke-linecap="round"/>
<path id="Vector_6" d="M645.947 308.068L625.002 435.725" stroke="#F5EBDD" stroke-width="4" stroke-miterlimit="10" stroke-linecap="round"/>
<path id="Vector_7" d="M668.697 307.239L660.581 435.678" stroke="#F5EBDD" stroke-width="4" stroke-miterlimit="10" stroke-linecap="round"/>
<path id="Vector_8" d="M696.215 307.239L704.353 435.93" stroke="#F5EBDD" stroke-width="4" stroke-miterlimit="10" stroke-linecap="round"/>
<path id="Vector_9" d="M682.5 336.7C715.149 336.7 729.269 311.135 732.638 303.812V303.559H632.384L632.319 303.812C635.699 311.147 649.819 336.7 682.5 336.7Z" fill="#FF7235"/>
<path id="Vector_10" d="M1324.02 245.611H929.589C911.872 245.611 897.509 261.401 897.509 280.88V714.525C897.509 734.004 911.872 749.795 929.589 749.795H1324.02C1341.73 749.795 1356.1 734.004 1356.1 714.525V280.88C1356.1 261.401 1341.73 245.611 1324.02 245.611Z" fill="#F5EBDD"/>
<path id="Vector_11" d="M681.92 1222.68C678.877 1222.68 675.939 1221.46 673.658 1219.24C671.378 1217.03 669.913 1213.97 669.539 1210.65L660.308 1125.38H703.533L694.301 1210.65C693.93 1213.97 692.466 1217.03 690.185 1219.25C687.904 1221.46 684.964 1222.68 681.92 1222.68Z" fill="#30242A"/>
<path id="Vector_12" d="M1166.86 1222.68C1163.81 1222.68 1160.88 1221.46 1158.6 1219.25C1156.32 1217.03 1154.86 1213.97 1154.49 1210.65L1145.25 1125.38H1188.47L1179.24 1210.65C1178.87 1213.97 1177.4 1217.03 1175.12 1219.25C1172.84 1221.46 1169.9 1222.68 1166.86 1222.68Z" fill="#30242A"/>
<path id="Vector_13" d="M428.301 772.979H622.344V1126.51H339.828V870.237C339.831 844.441 349.153 819.703 365.745 801.464C382.337 783.225 404.839 772.979 428.301 772.979Z" fill="#FFB7D5"/>
<path id="Vector_14" d="M645.466 595.647H1314.01C1337.47 595.647 1359.98 605.895 1376.57 624.137C1393.16 642.378 1402.48 667.119 1402.48 692.917V1126.48H557.014V692.905C557.014 667.107 566.335 642.366 582.927 624.125C599.519 605.883 622.023 595.635 645.488 595.635L645.466 595.647Z" fill="#FFB7D5"/>
<path id="Vector_15" d="M556.992 825.072V1126.48" stroke="#A15842" stroke-width="4" stroke-miterlimit="10" stroke-linecap="round"/>
<path id="Vector_16" d="M645.466 914.381H1314.01C1337.47 914.381 1359.98 924.629 1376.57 942.871C1393.16 961.113 1402.48 985.854 1402.48 1011.65V1126.49H557.014V1011.65C557.014 985.858 566.332 961.12 582.92 942.879C599.507 924.638 622.005 914.387 645.466 914.381Z" fill="#FFB7D5"/>
<path id="Vector_17" d="M1054.2 914.381H642.272C619.646 914.381 597.946 924.263 581.947 941.853C565.948 959.443 556.959 983.3 556.959 1008.18V1126.53" stroke="#A15842" stroke-width="4" stroke-miterlimit="10" stroke-linecap="round"/>
<path id="Vector_18" d="M1117.85 915.86V1126.48" stroke="#A15842" stroke-width="4" stroke-miterlimit="10"/>
<path id="Vector_19" d="M1402.48 770.658H1205.23" stroke="#A15842" stroke-width="4" stroke-miterlimit="10"/>
<path id="Vector_20" d="M497.963 733.525C523.261 737 531.147 725.191 534.855 714.982C539.066 703.402 536.353 693.445 533.072 680.507C533.072 680.507 541.428 675.504 540.127 669.768C539.033 665.139 529.528 664.622 529.528 664.622C529.157 662.553 528.825 660.409 528.533 658.188C526.422 641.954 523.261 632.683 523.261 632.683C515.878 635.004 506.396 633.886 503.235 632.683C498.965 645.69 491.256 656.997 481.097 665.151C481.097 665.151 457.899 637.337 443.144 658.2C431.113 675.216 448.416 696.44 460.01 698.761C453.119 714.742 434.58 724.013 424.933 727.885C425.524 732.912 426.082 737.577 426.574 741.642H498.761L497.963 733.525Z" fill="#EAA58B"/>
<path id="Vector_21" d="M749.033 834.439C752.842 819.545 755.952 804.446 758.352 789.201L733.053 713.864C733.053 713.864 743.597 682.599 734.147 677.933C724.697 673.268 703.533 703.462 695.1 727.777C691.458 738.287 681.505 762.445 671.387 786.483L749.033 834.439Z" fill="#EAA58B"/>
<path id="Vector_22" d="M644.492 849.47C644.492 849.47 583.351 792.676 556.883 771.801C530.414 750.925 500.073 754.437 500.073 754.437L498.75 741.678H426.562C427.656 750.733 428.367 756.745 428.367 756.745L374.62 967.7L534.844 953.787L530.633 888.852C530.633 888.852 617.039 968.217 666.629 960.713C711.353 953.907 736.761 882.912 749.022 834.451L671.365 786.495C658.098 818.073 644.492 849.47 644.492 849.47Z" fill="#3EC1F3"/>
<path id="Vector_23" d="M460.01 698.797C448.416 696.476 431.102 675.252 443.144 658.237C457.899 637.374 481.097 665.187 481.097 665.187C491.255 657.033 498.965 645.727 503.235 632.72C506.396 633.922 515.878 635.041 523.261 632.72C523.261 632.72 539.077 626.924 538.016 613.023C536.605 594.36 510.606 602.585 510.606 602.585C510.606 602.585 482.169 579.401 451.544 594.468C418.906 610.618 415.735 643.17 417.813 665.187C419.016 677.826 422.308 706.072 424.9 727.922C434.58 724.038 453.119 714.778 460.01 698.797Z" fill="#30242A"/>
<path id="Vector_24" d="M753.222 803.691C748.398 805.879 744.166 806.517 742.284 805.326C737.559 802.368 736.816 796.175 742.427 787.469C742.427 787.469 729.094 793.181 724.981 785.75C720.869 778.318 727.048 771.476 727.048 771.476C727.048 771.476 717.609 774.338 715.302 765.103C712.994 755.867 720.77 751.033 720.77 751.033C720.77 751.033 715.455 748.857 715.302 742.76C715.094 733.898 728.23 726.707 732.014 724.819" stroke="#A15842" stroke-width="8" stroke-miterlimit="10" stroke-linecap="round"/>
<path id="Vector_25" d="M532.963 888.599L529.058 838.467" stroke="#4756DF" stroke-width="4" stroke-miterlimit="10" stroke-linecap="round"/>
<path id="Vector_26" d="M496.967 735.665C490.85 734.145 484.959 731.683 479.467 728.354" stroke="#A15842" stroke-width="4" stroke-miterlimit="10" stroke-linecap="round"/>
<path id="Vector_27" d="M381.467 952.043L408.636 872.618" stroke="#4756DF" stroke-width="4" stroke-miterlimit="10" stroke-linecap="round"/>
<path id="Vector_28" d="M524.475 692.388C522.736 693.59 516.195 694.504 513.538 688.985" stroke="#A15842" stroke-width="4" stroke-miterlimit="10" stroke-linecap="round"/>
<path id="Vector_29" d="M514.828 666.341C516.574 666.341 517.989 664.785 517.989 662.866C517.989 660.947 516.574 659.391 514.828 659.391C513.083 659.391 511.667 660.947 511.667 662.866C511.667 664.785 513.083 666.341 514.828 666.341Z" fill="#A15842"/>
<path id="Vector_30" d="M456.848 673.304L468.442 680.254" stroke="#A15842" stroke-width="4" stroke-miterlimit="10" stroke-linecap="round"/>
<path id="Vector_31" d="M752.61 1175.49L833.361 1149.22C827.203 1125.82 815.424 1081.46 807.844 1055.61L707.077 1101.86C720.263 1127.83 735.499 1152.46 752.61 1175.49Z" fill="#EAA58B"/>
<path id="Vector_32" d="M754.141 1177.48C751.777 1187.34 750.312 1197.44 749.766 1207.62H892.62C889.88 1200.37 885.014 1194.34 878.795 1190.48L837.419 1164.72C837.419 1164.72 835.844 1158.71 833.361 1149.21L752.609 1175.49C753.594 1176.79 754.141 1177.48 754.141 1177.48Z" fill="#FFBE21"/>
<path id="Vector_33" d="M749.919 1222.68H895.387L894.939 1217.72C894.625 1214.25 893.839 1210.84 892.609 1207.62H749.755C749.441 1212.64 749.496 1217.67 749.919 1222.68Z" fill="#FF7235"/>
<path id="Vector_34" d="M678.234 1027.97C685.212 1054.42 695.898 1079.81 707.076 1101.86L807.844 1055.61C806.75 1051.73 805.656 1048.27 804.737 1045.35C773.205 945.165 754.14 864.598 707.755 856.433C634.747 843.662 510.551 981.902 491.903 1003.14L518.765 1021.04L603.225 1064.66L633.992 1072.46L678.234 1027.97Z" fill="#A15842"/>
<path id="Vector_35" d="M675.937 1026.93C673.546 1014.12 672.373 1001.06 672.437 987.974" stroke="#30242A" stroke-width="4" stroke-miterlimit="10" stroke-linecap="round"/>
<path id="Vector_36" d="M1067.24 753.27C1067.24 753.27 966.208 782.575 921.768 810.064C871.161 841.329 868 883.08 836.379 988.551C826.197 1022.5 819 1049.77 812.317 1071.2L899.423 1116.41L899.587 1116.05C899.587 1116.05 942.243 1109.16 945.973 1051.12C948.784 1007.83 950.129 975.708 963.889 943.325L1198.98 753.246L1067.24 753.27Z" fill="#30242A"/>
<path id="Vector_37" d="M765.352 1134.87C734.891 1139.95 722.181 1146.46 717.227 1161.65L774.769 1191.1C774.769 1191.1 805.624 1181.48 822.238 1186.18V1186.24C833.367 1189.11 844.231 1193.11 854.689 1198.18C871.833 1172.46 886.841 1145.09 899.533 1116.41L812.427 1071.2C799.936 1111.3 789.524 1130.84 765.352 1134.87Z" fill="#4856DF"/>
<path id="Vector_38" d="M808.38 1208.32L836.445 1222.68C842.927 1214.9 848.997 1206.73 854.623 1198.18C844.165 1193.11 833.301 1189.11 822.172 1186.24L808.38 1208.32Z" fill="#30242A"/>
<path id="Vector_39" d="M793.975 1109.88L813.51 1119.28" stroke="#F5EBDD" stroke-width="4" stroke-miterlimit="10" stroke-linecap="round"/>
<path id="Vector_40" d="M782.874 1124.78L802.408 1134.19" stroke="#F5EBDD" stroke-width="4" stroke-miterlimit="10" stroke-linecap="round"/>
<path id="Vector_41" d="M1169.49 495.382C1175.61 495.382 1180.56 489.933 1180.56 483.213C1180.56 476.492 1175.61 471.043 1169.49 471.043C1163.38 471.043 1158.42 476.492 1158.42 483.213C1158.42 489.933 1163.38 495.382 1169.49 495.382Z" fill="#FFBE21"/>
<path id="Vector_42" d="M1208.51 406.722C1232.96 406.722 1252.78 384.928 1252.78 358.044C1252.78 331.161 1232.96 309.367 1208.51 309.367C1184.05 309.367 1164.23 331.161 1164.23 358.044C1164.23 384.928 1184.05 406.722 1208.51 406.722Z" fill="#30242A"/>
<path id="Vector_43" d="M1177.97 390.5C1180.68 391.871 1157.94 332.54 1146.35 341.811C1135.39 350.541 1164.22 383.598 1177.97 390.5Z" fill="#3EC1F3"/>
<path id="Vector_44" d="M1179.18 394.119C1181.67 397.378 1239.66 375.072 1231.68 362.193C1223.91 349.819 1176.71 390.812 1179.18 394.119Z" fill="#3EC1F3"/>
<path id="Vector_45" d="M1287.57 626.935L1292.65 626.069V624.434C1291.01 625.386 1289.31 626.221 1287.57 626.935Z" fill="#30242A"/>
<path id="Vector_46" d="M1149.47 614.189C1198.82 615.175 1223.72 559.932 1230.04 543.446C1227.85 543.001 1225.67 542.616 1223.26 542.328C1194.82 538.852 1189.53 537.698 1180.04 523.785C1170.54 509.872 1169.49 482.058 1169.49 482.058C1169.49 482.058 1194.08 476.046 1190.58 454.244C1187.42 434.535 1166.33 434.535 1154.74 448.448C1154.74 448.448 1136.81 443.807 1119.95 422.943C1119.95 422.943 1107.61 426.13 1099.16 424.579C1096.98 439.754 1097.11 456.734 1094.61 470.466C1090.39 493.65 1093.52 508.718 1106.21 516.835C1118.9 524.951 1133.62 519.143 1133.62 519.143L1130.46 540.007C1130.46 540.007 1112.05 542.352 1096.7 547.655C1099.75 573.845 1110.73 613.419 1149.47 614.189Z" fill="#A15842"/>
<path id="Vector_47" d="M1217.99 753.27L1223.73 748.989L1213.78 753.27H1217.99Z" fill="#A15842"/>
<path id="Vector_48" d="M990.281 618.83C990.281 618.83 935.014 535.858 921.758 519.143C906.992 500.601 886.965 480.904 880.644 487.878C874.322 494.853 892.237 518.013 892.237 518.013L889.076 593.349C889.076 593.349 925.389 701.009 964.983 715.054C984.78 722.077 1022.38 703.559 1048.95 687.878L1007.86 606.108C997.412 613.636 990.281 618.83 990.281 618.83Z" fill="#A15842"/>
<path id="Vector_49" d="M1287.57 626.936C1287.57 626.936 1283.35 601.443 1278.08 587.53C1270.19 566.702 1257.18 549.05 1230.04 543.446C1223.72 559.932 1198.82 615.175 1149.47 614.189C1110.73 613.42 1099.76 573.845 1096.74 547.655C1093.5 548.741 1090.34 550.058 1087.26 551.599C1076.14 557.311 1032.66 588.263 1007.86 606.108L1048.91 687.83C1066.18 677.645 1078.79 668.59 1078.79 668.59L1067.19 753.198H1213.76L1223.71 748.917L1292.62 697.522C1292.53 673.889 1290.84 650.295 1287.57 626.936Z" fill="#FF7235"/>
<path id="Vector_50" d="M1318.14 567.833C1310.59 528.379 1271.76 529.581 1271.76 529.581C1273.64 520.14 1273.38 510.334 1270.99 501.032C1268.6 491.731 1264.15 483.222 1258.05 476.262C1236.97 451.924 1207.45 462.349 1207.45 462.349C1208.54 448.448 1210.61 412.518 1183.2 390.5C1155.79 368.482 1121.01 380.062 1108.35 397.45C1103.2 404.533 1100.7 414.129 1099.2 424.579C1107.61 426.13 1119.98 422.943 1119.98 422.943C1136.84 443.807 1154.77 448.448 1154.77 448.448C1166.36 434.536 1187.45 434.536 1190.61 454.245C1194.11 476.046 1169.52 482.058 1169.52 482.058C1169.52 482.058 1170.62 509.872 1180.07 523.785C1189.52 537.698 1194.83 538.852 1223.29 542.328C1225.66 542.616 1227.91 543.001 1230.07 543.446C1257.21 549.038 1270.23 566.702 1278.11 587.53C1283.38 601.443 1287.61 626.936 1287.61 626.936C1289.33 626.219 1291 625.384 1292.63 624.434C1302.84 618.59 1324.66 601.863 1318.14 567.833Z" fill="#30242A"/>
<path id="Vector_51" d="M1167.39 462.349L1175.83 456.565" stroke="#30242A" stroke-width="4" stroke-miterlimit="10" stroke-linecap="round"/>
<path id="Vector_52" d="M1113.44 489.562C1115.19 490.764 1121.72 491.678 1124.38 486.159" stroke="#30242A" stroke-width="4" stroke-miterlimit="10" stroke-linecap="round"/>
<path id="Vector_53" d="M1130.63 463.48C1132.38 463.48 1133.79 461.924 1133.79 460.004C1133.79 458.085 1132.38 456.529 1130.63 456.529C1128.89 456.529 1127.47 458.085 1127.47 460.004C1127.47 461.924 1128.89 463.48 1130.63 463.48Z" fill="#30242A"/>
<path id="Vector_54" d="M1106.24 458.874C1107.99 458.874 1109.4 457.318 1109.4 455.399C1109.4 453.479 1107.99 451.924 1106.24 451.924C1104.5 451.924 1103.08 453.479 1103.08 455.399C1103.08 457.318 1104.5 458.874 1106.24 458.874Z" fill="#30242A"/>
<path id="Vector_55" d="M1114.67 464.67C1114.67 464.67 1111.8 472.594 1112.49 474.182C1112.99 475.201 1113.75 476.037 1114.67 476.587" stroke="#30242A" stroke-width="4" stroke-miterlimit="10" stroke-linecap="round"/>
<path id="Vector_56" d="M899.063 608.994C900.778 608.978 902.444 608.363 903.82 607.238C907.55 603.138 906.795 597.137 899.511 590.596C899.511 590.596 913.314 592.171 915.414 584.054C917.514 575.937 910.153 571.308 910.153 571.308C910.153 571.308 919.636 571.308 919.636 562.037C919.636 552.765 911.203 550.444 911.203 550.444C911.203 550.444 915.666 546.897 914.364 541.173C912.253 531.902 894.338 529.581 894.338 529.581L891.866 526.262" stroke="#30242A" stroke-width="8" stroke-linecap="round" stroke-linejoin="round"/>
<path id="Vector_57" d="M1134.22 521.404C1138.67 519.461 1143 517.233 1147.21 514.73" stroke="#30242A" stroke-width="4" stroke-miterlimit="10" stroke-linecap="round"/>
<path id="Vector_58" d="M992.906 618.566L1003.99 635.052" stroke="#30242A" stroke-width="4" stroke-miterlimit="10" stroke-linecap="round"/>
<path id="Vector_59" d="M1082.4 630.399L1077.02 667.532" stroke="#A15842" stroke-width="4" stroke-miterlimit="10" stroke-linecap="round"/>
<path id="Vector_60" d="M1212.72 705.748L1212.19 646.068" stroke="#A15842" stroke-width="4" stroke-miterlimit="10" stroke-linecap="round"/>
<path id="Vector_61" d="M1273.35 531.204C1271.83 537.464 1269.79 543.558 1267.26 549.41" stroke="black" stroke-width="4" stroke-linecap="round" stroke-linejoin="round"/>
<path id="Vector_62" d="M1209.38 463.684L1206.4 480.904" stroke="black" stroke-width="4" stroke-linecap="round" stroke-linejoin="round"/>
<path id="Vector_63" d="M1145.49 754.012C1145.49 754.012 1054.82 785.277 1004.23 811.961C953.914 838.416 959.951 900.044 969.434 1007.84C972.792 1045.94 976.719 1075.78 978.709 1099.41H1074.96C1079.9 1096.38 1109.08 1075.78 1091.68 1019.43C1078.97 978.29 1068 951.042 1068 915.303H1148.5C1171.4 915.304 1193.4 905.49 1209.82 887.944C1226.24 870.399 1235.8 846.506 1236.45 821.34L1238.21 754L1145.49 754.012Z" fill="#30242A"/>
<path id="Vector_64" d="M960.116 1176.04C934.478 1194.83 925.477 1206.64 926.811 1222.71L990.248 1222.62C990.248 1222.62 1014.5 1199.54 1031.36 1196.07C1042.54 1193.73 1053.89 1192.57 1065.27 1192.59C1069.13 1171.8 1073.29 1140.6 1074.02 1100.26L1074.72 1099.87H978.469C981.827 1139.53 979.694 1161.68 960.116 1176.04Z" fill="#4856DF"/>
<path id="Vector_65" d="M1027.39 1222.51H1058.36C1058.36 1222.51 1061.73 1212.16 1065.36 1192.6C1053.98 1192.58 1042.63 1193.74 1031.45 1196.08L1027.39 1222.51Z" fill="#30242A"/>
<path id="Vector_66" d="M1066.79 917.856H1041.94" stroke="black" stroke-width="4" stroke-linecap="round" stroke-linejoin="round"/>
<path id="Vector_67" d="M976.533 1145.61H1000.3" stroke="#F5EBDD" stroke-width="4" stroke-miterlimit="10" stroke-linecap="round"/>
<path id="Vector_68" d="M971.25 1164.15H995.017" stroke="#F5EBDD" stroke-width="4" stroke-miterlimit="10" stroke-linecap="round"/>
<g id="man-microphone">
<path id="Vector_69" d="M650.3 961.892C676.208 961.892 697.211 938.801 697.211 910.317C697.211 881.833 676.208 858.742 650.3 858.742C624.392 858.742 603.389 881.833 603.389 910.317C603.389 938.801 624.392 961.892 650.3 961.892Z" fill="white"/>
<path id="Vector_70" d="M642.742 938.143H657.847" stroke="#4856DF" stroke-width="4" stroke-miterlimit="10" stroke-linecap="round"/>
<path id="Vector_71" d="M663.48 894.672C663.48 886.67 657.579 880.182 650.3 880.182C643.021 880.182 637.12 886.67 637.12 894.672V912.048C637.12 920.051 643.021 926.539 650.3 926.539C657.579 926.539 663.48 920.051 663.48 912.048V894.672Z" fill="#4856DF"/>
<path id="Vector_72" d="M650.3 921.909V938.143" stroke="#4856DF" stroke-width="4" stroke-miterlimit="10" stroke-linecap="round"/>
</g>
<path id="stroke-man-box" d="M696.719 492.496C705.224 492.496 713.381 496.21 719.395 502.822C725.409 509.434 728.788 518.402 728.788 527.753V961.41C728.788 970.761 725.409 979.729 719.395 986.341C713.381 992.953 705.224 996.668 696.719 996.668H302.323C293.818 996.668 285.661 992.953 279.647 986.341C273.633 979.729 270.255 970.761 270.255 961.41V527.753C270.255 518.402 273.633 509.434 279.647 502.822C285.661 496.21 293.818 492.496 302.323 492.496H696.719ZM696.719 487.686H302.323C292.661 487.699 283.399 491.924 276.567 499.435C269.735 506.947 265.891 517.13 265.88 527.753V961.41C265.891 972.033 269.735 982.217 276.567 989.728C283.399 997.239 292.661 1001.46 302.323 1001.48H696.719C706.381 1001.46 715.644 997.239 722.476 989.728C729.308 982.217 733.151 972.033 733.163 961.41V527.753C733.151 517.13 729.308 506.947 722.476 499.435C715.644 491.924 706.381 487.699 696.719 487.686Z" fill="#F5EBDD"/>
<path id="Vector_73" d="M1208.42 772.979H1402.48V1126.51H1120V870.237C1120 844.452 1129.32 819.723 1145.9 801.486C1162.48 783.248 1184.97 772.995 1208.42 772.979Z" fill="#FFB7D5"/>
<path id="Vector_74" d="M1353.99 1126.67C1356.58 1118.49 1361.42 1111.4 1367.84 1106.38C1374.26 1101.36 1381.95 1098.67 1389.83 1098.67C1397.71 1098.67 1405.39 1101.36 1411.81 1106.38C1418.24 1111.4 1423.08 1118.49 1425.67 1126.67C1428.15 1118.86 1432.68 1112.04 1438.69 1107.07C1444.7 1102.09 1451.91 1099.19 1459.42 1098.74C1456.07 1092.16 1452.08 1086 1447.51 1080.37L1433.73 1063.41C1429.44 1058.11 1426.73 1051.5 1425.98 1044.46C1425.23 1037.41 1426.47 1030.29 1429.53 1024.05L1441.23 1000.14C1437.95 1003.75 1418.97 1023.33 1390.15 1023.33C1361.32 1023.33 1342.35 1003.79 1339.07 1000.14L1350.78 1024.05C1353.84 1030.29 1355.07 1037.42 1354.31 1044.46C1353.56 1051.5 1350.85 1058.12 1346.56 1063.41L1332.78 1080.37C1328.2 1086.01 1324.2 1092.18 1320.85 1098.77C1328.24 1099.35 1335.33 1102.3 1341.22 1107.26C1347.11 1112.22 1351.55 1118.97 1353.99 1126.67Z" fill="#4756DF"/>
<path id="Vector_75" d="M1461.51 1150.79C1453.63 1150.8 1445.95 1153.5 1439.53 1158.52C1433.1 1163.54 1428.26 1170.63 1425.67 1178.81C1423.08 1170.62 1418.24 1163.53 1411.82 1158.5C1405.4 1153.48 1397.71 1150.78 1389.83 1150.78C1381.95 1150.78 1374.26 1153.48 1367.84 1158.5C1361.41 1163.53 1356.57 1170.62 1353.99 1178.81C1350.85 1168.92 1344.45 1160.68 1336.06 1155.74C1327.66 1150.79 1317.87 1149.5 1308.65 1152.11C1309.19 1178.57 1318.9 1203.8 1335.8 1222.65H1444.38C1461.25 1203.84 1470.95 1178.67 1471.52 1152.27C1468.26 1151.29 1464.89 1150.8 1461.51 1150.79Z" fill="#4756DF"/>
<path id="Vector_76" d="M1390.09 1023.33C1418.91 1023.33 1437.89 1003.79 1441.18 1000.14H1339.01C1342.29 1003.79 1361.28 1023.33 1390.09 1023.33Z" fill="#30242A"/>
<path id="Vector_77" d="M1353.99 1178.83C1356.57 1170.65 1361.41 1163.55 1367.84 1158.53C1374.26 1153.5 1381.95 1150.81 1389.83 1150.81C1397.71 1150.81 1405.4 1153.5 1411.82 1158.53C1418.24 1163.55 1423.08 1170.65 1425.67 1178.83C1428.83 1168.84 1435.32 1160.55 1443.83 1155.62C1452.35 1150.69 1462.24 1149.5 1471.52 1152.3C1471.96 1133.57 1467.78 1115.06 1459.42 1098.74C1451.91 1099.19 1444.7 1102.09 1438.69 1107.07C1432.68 1112.04 1428.15 1118.86 1425.67 1126.67C1423.08 1118.49 1418.24 1111.4 1411.81 1106.38C1405.39 1101.36 1397.71 1098.67 1389.83 1098.67C1381.95 1098.67 1374.26 1101.36 1367.84 1106.38C1361.42 1111.4 1356.58 1118.49 1353.99 1126.67C1351.54 1118.95 1347.08 1112.19 1341.17 1107.23C1335.26 1102.27 1328.15 1099.33 1320.74 1098.77C1312.44 1115.05 1308.29 1133.49 1308.7 1152.14C1317.93 1149.52 1327.71 1150.82 1336.11 1155.76C1344.51 1160.71 1350.91 1168.94 1354.04 1178.83H1353.99Z" fill="#3EC1F3"/>
<path id="Vector_78" d="M1397.66 1020.04C1399.74 1006.02 1409.22 950.396 1433.05 920.237" stroke="#30242A" stroke-width="4" stroke-miterlimit="10" stroke-linecap="round"/>
<path id="Vector_79" d="M1386.65 1020.44C1386.49 1004.52 1385 926.286 1370.85 879.605" stroke="#30242A" stroke-width="4" stroke-miterlimit="10" stroke-linecap="round"/>
<path id="Vector_80" d="M1449.34 965.636C1470.24 955.526 1485.51 943.141 1483.44 937.974C1481.37 932.807 1462.75 936.814 1441.85 946.925C1420.95 957.035 1405.69 969.42 1407.75 974.587C1409.82 979.754 1428.44 975.746 1449.34 965.636Z" fill="#30242A"/>
<path id="Vector_81" d="M1449.33 823.493C1456.84 812.328 1460.05 800.94 1456.51 798.057C1452.96 795.174 1444 801.888 1436.49 813.052C1428.98 824.216 1425.76 835.604 1429.31 838.487C1432.85 841.37 1441.82 834.657 1449.33 823.493Z" fill="#30242A"/>
<path id="Vector_82" d="M1336.22 973.708C1363.46 969.178 1384.95 961.216 1384.23 955.923C1383.5 950.63 1360.82 950.012 1333.58 954.541C1306.34 959.071 1284.85 967.033 1285.58 972.326C1286.3 977.618 1308.98 978.237 1336.22 973.708Z" fill="#30242A"/>
<path id="Vector_83" d="M1317.18 895.514V895.598C1321.2 898.074 1324.23 902.116 1325.68 906.927C1327.12 911.738 1326.88 916.969 1324.99 921.591C1323.1 926.213 1319.71 929.891 1315.48 931.899C1311.25 933.907 1306.49 934.101 1302.13 932.442V932.527C1324.97 943.806 1346.87 944.66 1351.04 934.439C1355.22 924.217 1340.02 906.793 1317.18 895.514Z" fill="#FF7235"/>
<path id="Vector_84" d="M1384.69 813.756C1379.82 812.373 1373.5 820.454 1368.88 832.996C1363.33 817.808 1355.27 807.647 1349.84 809.619C1344.42 811.591 1343.43 825.023 1347.19 840.884C1336.72 833.862 1327.25 831.505 1324.1 835.797C1320.08 841.281 1327.83 855.494 1341.43 867.556C1345.3 871.024 1349.46 874.072 1353.87 876.658C1354.62 873.386 1356.1 870.37 1358.18 867.887C1360.25 865.403 1362.86 863.53 1365.77 862.437C1368.67 861.344 1371.78 861.066 1374.81 861.628C1377.83 862.19 1380.68 863.574 1383.1 865.656C1385.14 860.836 1386.77 855.821 1387.97 850.672C1392.34 832.034 1390.89 815.523 1384.69 813.756Z" fill="#FF7235"/>
<path id="Vector_85" d="M1490.67 898.135C1489.17 892.868 1479.59 891.245 1467.5 893.542C1476.25 880.314 1479.88 867.435 1475.48 863.407C1471.08 859.379 1460.17 865.583 1449.95 877.464C1449.83 863.972 1446.67 853.907 1441.67 853.234C1435.32 852.38 1428.44 867.135 1426.36 886.194C1425.73 891.637 1425.58 897.134 1425.91 902.608C1428.83 901.577 1431.94 901.366 1434.96 901.992C1437.98 902.619 1440.8 904.064 1443.18 906.196C1445.56 908.329 1447.42 911.081 1448.59 914.203C1449.75 917.324 1450.19 920.717 1449.86 924.073C1454.66 923.429 1459.4 922.298 1464.01 920.694C1480.62 914.958 1492.59 904.857 1490.67 898.135Z" fill="#FF7235"/>
<path id="Vector_86" d="M1443.28 906.336C1440.9 904.152 1438.05 902.664 1435 902.013C1431.96 901.361 1428.81 901.566 1425.86 902.609C1426.45 911.676 1428.54 918.614 1431.67 921.199C1434.6 924.182 1441.38 925.168 1449.81 924.073C1450.14 920.754 1449.71 917.398 1448.57 914.303C1447.43 911.208 1445.61 908.471 1443.28 906.336Z" fill="#30242A"/>
<path id="Vector_87" d="M1365.96 862.325C1363.01 863.393 1360.36 865.265 1358.25 867.765C1356.13 870.265 1354.63 873.312 1353.88 876.622C1361.18 880.867 1367.65 882.635 1371.3 881.023C1375.15 879.821 1379.49 874.073 1383.11 865.62C1380.72 863.557 1377.91 862.177 1374.91 861.602C1371.92 861.027 1368.85 861.275 1365.96 862.325Z" fill="#30242A"/>
<path id="Vector_88" d="M1319.22 929.532C1317.26 928.326 1315.79 926.359 1315.09 924.018C1314.39 921.678 1314.51 919.134 1315.44 916.889C1316.36 914.644 1318.01 912.86 1320.08 911.891C1322.14 910.921 1324.45 910.836 1326.57 911.651C1326.32 908.326 1325.33 905.119 1323.69 902.314C1322.05 899.51 1319.8 897.194 1317.15 895.574L1302.1 932.418C1304.95 933.519 1308 933.831 1310.98 933.328C1313.97 932.825 1316.8 931.521 1319.22 929.532Z" fill="#F5EBDD"/>
<path id="Vector_89" d="M1315.38 916.906C1314.46 919.16 1314.34 921.711 1315.05 924.055C1315.76 926.398 1317.25 928.362 1319.22 929.557C1321.72 927.507 1323.71 924.79 1325 921.662C1326.28 918.533 1326.82 915.097 1326.57 911.675C1324.44 910.84 1322.11 910.915 1320.04 911.884C1317.97 912.854 1316.3 914.647 1315.38 916.906Z" fill="#4856DF"/>
<path id="stroke-woman-box" d="M1324.02 245.611C1332.53 245.611 1340.68 249.327 1346.7 255.941C1352.72 262.555 1356.1 271.526 1356.1 280.88V714.538C1356.09 723.89 1352.71 732.858 1346.7 739.469C1340.68 746.081 1332.52 749.795 1324.02 749.795H929.589C921.083 749.795 912.925 746.081 906.909 739.469C900.893 732.858 897.512 723.89 897.509 714.538V280.88C897.509 276.248 898.339 271.662 899.951 267.383C901.563 263.104 903.926 259.216 906.905 255.941C909.884 252.666 913.421 250.068 917.313 248.296C921.205 246.523 925.376 245.611 929.589 245.611H1324.02ZM1324.02 240.801H929.589C919.924 240.814 910.658 245.04 903.824 252.554C896.99 260.067 893.146 270.254 893.134 280.88V714.538C893.146 725.162 896.991 735.348 903.825 742.86C910.659 750.371 919.925 754.596 929.589 754.605H1324.02C1333.68 754.596 1342.95 750.371 1349.78 742.86C1356.62 735.348 1360.46 725.162 1360.47 714.538V280.88C1360.46 270.254 1356.62 260.067 1349.78 252.554C1342.95 245.04 1333.68 240.814 1324.02 240.801Z" fill="#F5EBDD"/>
<path id="Vector_90" d="M893.288 517.989C893.288 517.989 870.1 517.989 866.939 528.414C863.778 538.84 871.15 546.969 871.15 546.969C871.15 546.969 858.506 553.919 866.939 566.666C866.939 566.666 860.606 578.258 871.15 585.208C871.15 585.208 864.828 593.325 875.372 601.442C885.916 609.559 900.67 610.713 903.81 607.238C907.539 603.138 906.785 597.137 899.5 590.596C899.5 590.596 913.303 592.171 915.403 584.054C917.503 575.937 910.142 571.308 910.142 571.308C910.142 571.308 919.625 571.308 919.625 562.036C919.625 552.765 911.192 550.444 911.192 550.444C911.192 550.444 915.655 546.897 914.353 541.173C912.8 534.355 902.716 531.3 897.477 530.158C896.084 529.876 894.678 529.683 893.266 529.581L893.288 517.989Z" fill="#A15842"/>
<path id="Vector_91" d="M872.365 586.183C882.838 589.664 893.623 591.893 904.532 592.833" stroke="#30242A" stroke-width="4" stroke-miterlimit="10" stroke-linecap="round"/>
<path id="Vector_92" d="M868.438 567.58C883.697 571.731 899.41 573.508 915.118 572.859" stroke="#30242A" stroke-width="4" stroke-miterlimit="10" stroke-linecap="round"/>
<path id="Vector_93" d="M871.773 548.34C886.238 552.159 901.194 553.209 915.983 551.442" stroke="#30242A" stroke-width="4" stroke-miterlimit="10" stroke-linecap="round"/>
<path id="Vector_94" d="M1212.39 686.784C1212.39 686.784 1127.68 713.405 1098.82 738.523C1085.78 749.865 1070.13 770.565 1065.13 779.997C1060.13 789.429 1038.91 824.76 1049.48 825.633C1060.05 826.505 1071.08 805.352 1071.08 805.352C1071.08 805.352 1065.42 831.005 1066.73 839.09C1068.04 847.175 1078.48 844.575 1078.48 844.575C1087.15 853.617 1094.22 841.832 1094.22 841.832C1109.25 851.861 1123.63 795.829 1123.63 795.829C1132.16 790.908 1139.99 784.645 1146.87 777.237C1146.87 777.237 1241.17 774.142 1269.9 744.385C1290.3 723.27 1294.39 682.586 1293.35 644L1211.35 646.189L1212.39 686.784Z" fill="#A15842"/>
<path id="Vector_95" d="M1211.39 735.437L1230.64 730.146" stroke="#30242A" stroke-width="4" stroke-miterlimit="10" stroke-linecap="round"/>
<path id="Vector_96" d="M1062.03 862.192C1067.5 841.75 1071.88 829.725 1075.16 822.281" stroke="#30242A" stroke-width="4" stroke-miterlimit="10" stroke-linecap="round"/>
<path id="Vector_97" d="M1089.9 829.244C1080.41 851.731 1074.59 878.859 1071.88 892.255" stroke="#30242A" stroke-width="4" stroke-miterlimit="10" stroke-linecap="round"/>
<path id="Vector_98" d="M1104.69 837.349C1098.49 852.982 1092.85 876.502 1089.38 891.053" stroke="#30242A" stroke-width="4" stroke-miterlimit="10" stroke-linecap="round"/>
<path id="Vector_99" d="M1080.06 778.823C1054.36 788.876 1025.69 800.949 1003.99 812.385C965.092 832.827 959.875 874.326 963.889 941.87" stroke="black" stroke-width="4" stroke-linecap="round" stroke-linejoin="round"/>
<path id="Vector_100" d="M462.186 1111.46C419.059 1121.08 388.325 1133.44 388.325 1133.44L346.828 1113.23L346.915 1112.23L250.217 1208.78L252.328 1211.56C254.967 1215.04 258.271 1217.84 262.003 1219.76C265.736 1221.68 269.808 1222.68 273.93 1222.68H468.015L462.186 1111.46Z" fill="#EAA58B"/>
<path id="Vector_101" d="M388.281 1133.44C388.281 1133.44 419.016 1121.02 462.142 1111.46L467.972 1222.68H606.495C643.945 1222.68 676.769 1193.82 683.747 1153.37C688.395 1126.37 681.133 1097.46 655.036 1077.8C613.058 1046.17 523.261 1004.78 500.073 996.668L372.509 1029.14C348.261 1058.12 353.533 1105.63 353.533 1105.63L388.281 1133.44Z" fill="#A15842"/>
<path id="Vector_102" d="M462.503 1112.96C491.181 1106.87 523.217 1101.59 568.061 1103.88" stroke="#30242A" stroke-width="4" stroke-miterlimit="10" stroke-linecap="round"/>
<path id="Vector_103" d="M502.261 995.466C522.55 1002.57 593.841 1035.15 639.461 1064.37" stroke="#30242A" stroke-width="4" stroke-miterlimit="10" stroke-linecap="round"/>
<path id="Vector_104" d="M367.5 1113.07L261.089 1219.24C265.069 1221.5 269.483 1222.68 273.963 1222.68H351.422L388.281 1133.44C382.508 1125.35 375.472 1118.45 367.5 1113.07Z" fill="#FFBE21"/>
<path id="Vector_105" d="M353.533 1105.61L250.217 1208.78L252.328 1211.55C254.744 1214.74 257.721 1217.35 261.078 1219.24L367.5 1113.07C363.109 1110.03 358.425 1107.53 353.533 1105.61Z" fill="#FF7235"/>
<path id="Vector_106" d="M329.809 1202.4V1222.94" stroke="#30242A" stroke-width="4" stroke-miterlimit="10" stroke-linecap="round"/>
<path id="Vector_107" d="M312.944 1202.4V1222.94" stroke="#30242A" stroke-width="4" stroke-miterlimit="10" stroke-linecap="round"/>
<path id="Vector_108" d="M428.804 754.797C432.086 754.461 438.933 753.847 445.78 753.847" stroke="#4756DF" stroke-width="4" stroke-miterlimit="10" stroke-linecap="round"/>
<path id="Vector_109" d="M733.053 713.864C733.053 713.864 753.616 706.373 759.303 715.8C764.991 725.228 759.719 735.521 759.719 735.521C759.719 735.521 774.036 738.636 768.819 753.859C768.819 753.859 777.995 763.48 769.245 773.581C769.245 773.581 777.558 779.749 769.081 790.993C760.605 802.236 746.222 807.828 742.208 805.327C737.483 802.368 736.739 796.175 742.35 787.469C742.35 787.469 729.017 793.181 724.905 785.75C720.792 778.318 726.972 771.476 726.972 771.476C726.972 771.476 717.533 774.338 715.225 765.103C712.917 755.868 720.694 751.034 720.694 751.034C720.694 751.034 715.378 748.857 715.225 742.76C715.017 733.898 729.159 726.178 732.944 724.302L733.053 713.864Z" fill="#EAA58B"/>
<path id="Vector_110" d="M717.5 752.657C725.616 751.093 746.233 746.259 759.883 735.822" stroke="#A15842" stroke-width="4" stroke-miterlimit="10" stroke-linecap="round"/>
<path id="Vector_111" d="M720.781 774.314C737.919 771.953 754.362 765.413 768.906 755.17" stroke="#A15842" stroke-width="4" stroke-miterlimit="10" stroke-linecap="round"/>
<path id="Vector_112" d="M736.094 791.954C739.014 790.824 758.067 783.308 769.628 775.252" stroke="#A15842" stroke-width="4" stroke-miterlimit="10" stroke-linecap="round"/>
<path id="Vector_113" d="M444.248 940.355C425.162 942.917 403.867 946.705 379.892 951.418L413.623 851.743L428.378 756.746C428.378 756.746 379.892 762.542 357.754 790.416C337.334 816.065 273.415 935.293 298.692 997.883C323.969 1060.47 399.919 1038.4 417.812 1032.6C427.58 1029.44 442.378 1022.15 457.57 1016.73L444.248 940.355Z" fill="#3EC1F3"/>
<path id="Vector_114" d="M493.741 1010.58C516.939 1014.06 543.287 1026.8 547.509 1010.58C547.509 1010.58 561.728 1010.18 557.244 995.321C557.244 995.321 564.375 994.347 565.425 988.551C567.536 976.971 542.237 966.533 542.237 966.533C542.237 966.533 562.264 970.009 566.486 965.331C571.856 959.415 566.628 949.999 533.914 941.281C510.158 934.956 481.414 935.34 444.227 940.343L457.581 1016.67C470.312 1012.22 483.197 1008.99 493.741 1010.58Z" fill="#EAA58B"/>
<path id="Vector_115" d="M551.25 968.013C540.017 963.275 518.689 955.398 503.234 952.633" stroke="#A15842" stroke-width="4" stroke-miterlimit="10" stroke-linecap="round"/>
<path id="Vector_116" d="M557.681 994.84C543.025 987.625 514.719 974.254 499.537 971.752" stroke="#A15842" stroke-width="4" stroke-miterlimit="10" stroke-linecap="round"/>
<path id="Vector_117" d="M546.317 1011.78C535.019 1005.48 512.411 993.65 496.376 990.295" stroke="#A15842" stroke-width="4" stroke-miterlimit="10" stroke-linecap="round"/>
<path id="Vector_118" d="M444.434 942.087C434.131 943.554 401.176 948.556 351.947 959.006" stroke="#4756DF" stroke-width="4" stroke-miterlimit="10" stroke-linecap="round"/>
<g id="woman-microphone">
<path id="Vector_119" d="M1277.91 715.15C1303.82 715.15 1324.82 692.059 1324.82 663.575C1324.82 635.091 1303.82 612 1277.91 612C1252 612 1231 635.091 1231 663.575C1231 692.059 1252 715.15 1277.91 715.15Z" fill="white"/>
<path id="Vector_120" d="M1270 691.269H1285.11" stroke="#4856DF" stroke-width="4" stroke-miterlimit="10" stroke-linecap="round"/>
<path id="Vector_121" d="M1277.55 675.036V691.269" stroke="#4856DF" stroke-width="4" stroke-miterlimit="10" stroke-linecap="round"/>
<path id="Vector_122" d="M1290.73 647.799C1290.73 639.796 1284.83 633.309 1277.55 633.309C1270.28 633.309 1264.38 639.796 1264.38 647.799V665.175C1264.38 673.178 1270.28 679.665 1277.55 679.665C1284.83 679.665 1290.73 673.178 1290.73 665.175V647.799Z" fill="#4856DF"/>
</g>
<g id="woman-circles">
<path id="Vector_123" d="M946.532 318.626C956.136 318.626 963.922 310.066 963.922 299.506C963.922 288.947 956.136 280.387 946.532 280.387C936.927 280.387 929.141 288.947 929.141 299.506C929.141 310.066 936.927 318.626 946.532 318.626Z" fill="white"/>
<path id="Vector_124" d="M999.239 318.626C1008.84 318.626 1016.63 310.066 1016.63 299.506C1016.63 288.947 1008.84 280.387 999.239 280.387C989.635 280.387 981.849 288.947 981.849 299.506C981.849 310.066 989.635 318.626 999.239 318.626Z" fill="white"/>
<path id="Vector_125" d="M1051.95 318.626C1061.55 318.626 1069.34 310.066 1069.34 299.506C1069.34 288.947 1061.55 280.387 1051.95 280.387C1042.34 280.387 1034.56 288.947 1034.56 299.506C1034.56 310.066 1042.34 318.626 1051.95 318.626Z" fill="white"/>
</g>
<g id="man-circles">
<path id="circle3" d="M424.692 565.499C434.297 565.499 442.083 556.939 442.083 546.38C442.083 535.82 434.297 527.26 424.692 527.26C415.088 527.26 407.302 535.82 407.302 546.38C407.302 556.939 415.088 565.499 424.692 565.499Z" fill="white"/>
<path id="circle2" d="M371.984 565.499C381.589 565.499 389.375 556.939 389.375 546.38C389.375 535.82 381.589 527.26 371.984 527.26C362.38 527.26 354.594 535.82 354.594 546.38C354.594 556.939 362.38 565.499 371.984 565.499Z" fill="white"/>
<path id="circle1" d="M319.266 565.499C328.87 565.499 336.656 556.939 336.656 546.38C336.656 535.82 328.87 527.26 319.266 527.26C309.661 527.26 301.875 535.82 301.875 546.38C301.875 556.939 309.661 565.499 319.266 565.499Z" fill="white"/>
</g>
</g>
</svg>
